<svg xmlns="http://www.w3.org/2000/svg" viewBox="0 0 177.89 177.89"><defs><style>.cls-1{fill:#212121;}.cls-2{fill:#ededed;}.cls-3{fill:#0f3460;}.cls-4{fill:#da0037;}</style></defs><g id="Camada_2" data-name="Camada 2"><g id="Camada_1-2" data-name="Camada 1"><rect class="cls-1" width="177.89" height="177.89" rx="38.51"/><path class="cls-2" d="M100.83,45c2,1.87,3.8,3.5,5.56,5.14,2.09,2,4.15,4,6.28,5.86a2.45,2.45,0,0,1,.87,2c0,8.3,0,16.6,0,24.9v1.36l.24,0c.26-.38.52-.75.76-1.13Q122,71,129.44,58.87a2.46,2.46,0,0,1,2.41-1.35c4.34.06,8.68,0,13.2,0-.25.47-.41.81-.6,1.13-11.81,19.18-34.74,55.52-46.51,74.72A3,3,0,0,1,95,135.05c-3.87-.08-7.74,0-11.6,0-.37,0-.75,0-1.27-.07.28-.49.48-.86.7-1.22,1.61-2.63,14.21-22.5,16-25a11.67,11.67,0,0,0,2-7.15c-.1-18.29-.06-36.58-.06-54.88Z"/><path class="cls-3" d="M95,87.87a30,30,0,0,1-30,30,30,30,0,0,1-30-30,30,30,0,0,1,30-30,28.77,28.77,0,0,1,17.16,5.32V45H95ZM65,70.71A17.12,17.12,0,0,0,47.85,87.87,17.11,17.11,0,0,0,65,105,17.12,17.12,0,0,0,82.16,87.87,17.14,17.14,0,0,0,65,70.71Z"/><path class="cls-2" d="M92.9,85.73a30,30,0,0,1-30,30A28.93,28.93,0,0,1,41.64,107a28.94,28.94,0,0,1-8.79-21.24A28.93,28.93,0,0,1,41.64,64.5a28.93,28.93,0,0,1,21.23-8.79A28.77,28.77,0,0,1,80,61V42.84H92.9Zm-30-17.15A17.16,17.16,0,0,0,50.73,97.87a17.19,17.19,0,0,0,24.28,0,17.19,17.19,0,0,0,0-24.28A16.54,16.54,0,0,0,62.87,68.58Z"/><path class="cls-4" d="M98.7,42.84,104.26,48c2.09,2,4.15,4,6.28,5.86a2.45,2.45,0,0,1,.87,2c0,8.3,0,16.6,0,24.9v1.36l.24,0c.26-.38.52-.75.76-1.13,5-8.1,10-16.18,14.92-24.3a2.46,2.46,0,0,1,2.41-1.35c4.34,0,8.68,0,13.19,0-.24.47-.4.81-.59,1.13-11.81,19.18-34.74,55.52-46.51,74.72a3,3,0,0,1-2.91,1.66c-3.87-.08-7.74,0-11.6,0-.38,0-.75,0-1.27-.07.28-.49.48-.86.7-1.22,1.6-2.63,14.21-22.5,16-25a11.6,11.6,0,0,0,2-7.15c-.09-18.29,0-36.58,0-54.88Z"/></g></g></svg>