<svg xmlns="http://www.w3.org/2000/svg" viewBox="0 0 167.6 123.24"><defs><style>.cls-1{fill:#ededed;}.cls-2{fill:#da0037;}</style></defs><g id="Camada_2" data-name="Camada 2"><g id="Camada_1-2" data-name="Camada 1"><path class="cls-1" d="M80.66,47.17H87.1q0-21.39,0-42.79a11.1,11.1,0,0,0,0-1.63,3.22,3.22,0,0,0-6.38,0,10.15,10.15,0,0,0,0,1.35Q80.65,25.65,80.66,47.17Z"/><path class="cls-1" d="M94.09,47.17h6.43V11.87c0-.63,0-1.27,0-1.89a3.21,3.21,0,0,0-6.38.08c0,.5,0,1,0,1.49Z"/><path class="cls-1" d="M73.69,47.17V25.65c0-3.25,0-6.5,0-9.75a3.14,3.14,0,0,0-3.61-3.26c-1.77.21-2.79,1.54-2.8,3.68V47.17Z"/><path class="cls-1" d="M60.3,47.17q0-10.56,0-21.12a3.23,3.23,0,1,0-6.45-.12q0,10.62,0,21.24Z"/><path class="cls-1" d="M33.48,47.17V43.38c0-5.77,0-11.55,0-17.32a3.2,3.2,0,0,0-3.74-3.4C28,22.91,27,24.26,27,26.29V47.17Z"/><path class="cls-1" d="M113.94,47.17q0-10.1,0-20.21c0-2.28-1.23-3.72-3.18-3.75s-3.27,1.47-3.27,3.8q0,10.08,0,20.16Z"/><path class="cls-1" d="M154.15,47.17q0-7.5,0-15c0-2-1.14-3.43-2.93-3.56-2.05-.16-3.48,1.28-3.48,3.55q0,7.52,0,15Z"/><path class="cls-1" d="M20.05,47.17V33.57c0-2.27-1.25-3.67-3.24-3.65s-3.17,1.37-3.17,3.58c0,4.56,0,9.12,0,13.67Z"/><path class="cls-1" d="M46.87,47.17c0-4.69,0-9.38,0-14.07a3.12,3.12,0,0,0-3.11-3.24,3.08,3.08,0,0,0-3.28,3.19q0,7.06,0,14.12Z"/><path class="cls-1" d="M6.66,47.17c0-3,0-6,0-9,0-2.31-1.21-3.68-3.2-3.7S.2,35.91.2,38.17c0,3,0,6,0,9Z"/><path class="cls-1" d="M167.59,47.17v-9c0-2.19-1.25-3.58-3.16-3.61s-3.3,1.35-3.3,3.6v9.05Z"/><path class="cls-1" d="M127.34,47.17c0-3,0-6.09,0-9.13,0-2.16-1.28-3.53-3.24-3.52s-3.16,1.34-3.16,3.45q0,4.61,0,9.2Z"/><path class="cls-1" d="M140.77,47.17q0-3.16,0-6.35a3.24,3.24,0,1,0-6.45-.06q0,3.2,0,6.41Z"/><path class="cls-1" d="M44.32,88.41a21.33,21.33,0,0,1-6.49,15.67,21.33,21.33,0,0,1-15.67,6.49,21.34,21.34,0,0,1-15.67-6.49,22.16,22.16,0,0,1,0-31.34,21.34,21.34,0,0,1,15.67-6.49,21.35,21.35,0,0,1,12.67,3.92V56.75h9.49ZM22.16,75.75a12.21,12.21,0,0,0-9,3.7,12.7,12.7,0,0,0,0,17.92,12.21,12.21,0,0,0,9,3.7,12.21,12.21,0,0,0,9-3.7,12.67,12.67,0,0,0,0-17.92A12.21,12.21,0,0,0,22.16,75.75Z"/><path class="cls-1" d="M167.6,88.41v22.16h-9.5V88.41a12.67,12.67,0,1,0-25.33,0v22.16h-9.5V56.75h9.5V70.17A22.2,22.2,0,0,1,167.6,88.41Z"/><path class="cls-1" d="M117.55,78a22.66,22.66,0,0,0-3.93-5.21,22.17,22.17,0,0,0-31.35,0,22.16,22.16,0,0,0,0,31.34,21.34,21.34,0,0,0,15.67,6.49,21.68,21.68,0,0,0,10.74-2.69A13.82,13.82,0,0,1,106.9,110a12.2,12.2,0,0,1-9,3.71v9.5a21.39,21.39,0,0,0,15.68-6.49,22.71,22.71,0,0,0,3.93-5.22ZM106.9,97.37A12.67,12.67,0,0,1,89,79.45,12.67,12.67,0,0,1,106.9,97.37Z"/><path class="cls-2" d="M48.6,56.75c1.49,1.38,2.8,2.58,4.1,3.8,1.55,1.44,3.07,2.91,4.64,4.32a1.81,1.81,0,0,1,.64,1.5c0,6.12,0,12.25,0,18.37v1l.18,0c.18-.28.38-.55.56-.84C62.38,79,66.07,73,69.72,67a1.83,1.83,0,0,1,1.77-1c3.2,0,6.41,0,9.74,0-.18.35-.29.6-.44.83C72.08,81,55.16,107.84,46.47,122a2.18,2.18,0,0,1-2.15,1.22c-2.85-.06-5.71,0-8.56,0-.28,0-.55,0-.93,0,.2-.36.34-.64.51-.9,1.18-1.94,10.49-16.6,11.79-18.46a8.59,8.59,0,0,0,1.51-5.28c-.07-13.5,0-27,0-40.5Z"/></g></g></svg>