<svg xmlns="http://www.w3.org/2000/svg" viewBox="0 0 30 30"><defs><style>.cls-1{fill:#ededed;}</style></defs><g id="Camada_2" data-name="Camada 2"><g id="Camada_1-2" data-name="Camada 1"><path class="cls-1" d="M20.92,5.29c0-.14,0-.29,0-.43,0-.61,0-1.23.12-1.83a2.11,2.11,0,0,1,1.78-1.54,2.14,2.14,0,0,1,2.28,1.09,2.56,2.56,0,0,1,.3,1.15c0,2.08,0,4.16,0,6.24a1,1,0,0,0,.25.63C27,12,28.21,13.33,29.46,14.69A1.84,1.84,0,0,1,30,16a1.88,1.88,0,0,1-1.55,1.72c-.51.07-1,.07-1.56.09-.2,0-.41,0-.61,0a.83.83,0,0,0-.85.95v3.33c0,1.92,0,3.84,0,5.75A1.93,1.93,0,0,1,23.6,30a29.85,29.85,0,0,1-3.41,0,1.81,1.81,0,0,1-1.63-1.86v-7.7c0-.9-.24-1.13-1.17-1.13H13c-.84,0-1.15.31-1.15,1.13,0,2.53,0,5.06,0,7.59a1.93,1.93,0,0,1-1.8,2c-1.26,0-2.52.05-3.78,0a1.8,1.8,0,0,1-1.73-2c0-2.87,0-5.75,0-8.62v-.43c0-.79-.3-1.09-1.11-1.11H2.12a2,2,0,0,1-1.81-.9,1.67,1.67,0,0,1,.18-2.16C1.92,13.18,3.37,11.61,4.82,10Q9.09,5.41,13.38.76a2.11,2.11,0,0,1,3.22,0c1.38,1.47,2.73,3,4.1,4.45l.12.12Z"/></g></g></svg>