<svg xmlns="http://www.w3.org/2000/svg" viewBox="0 0 30 30"><defs><style>.cls-1{fill:#ededed;}</style></defs><g id="Camada_2" data-name="Camada 2"><g id="Camada_1-2" data-name="Camada 1"><path class="cls-1" d="M6.1,15.49q0,4.78,0,9.59c0,.28-.09.36-.35.36-1.81,0-3.62,0-5.42,0C0,25.45,0,25.26,0,25V14Q0,10,0,5.9c0-.34.09-.43.42-.42,1.73,0,3.46,0,5.19,0,.52,0,.52,0,.52.56v9.45Z"/><path class="cls-1" d="M29.48,25.06c-.47.12-.9.24-1.34.34L25.5,26l-1.66.38c-.24.05-.35,0-.41-.31-.16-.91-.38-1.8-.57-2.69l-.66-3.22-.72-3.39-.54-2.63L20.25,11c-.18-.87-.37-1.75-.53-2.63-.09-.54-.07-.56.44-.67l3.32-.73c.54-.12,1.08-.26,1.62-.4s.45-.07.54.35c.23,1.13.48,2.25.72,3.38s.44,2.19.68,3.29c.18.86.38,1.72.56,2.58s.33,1.6.5,2.39.4,1.84.59,2.76S29,23,29.2,23.86C29.28,24.24,29.37,24.61,29.48,25.06Z"/><path class="cls-1" d="M12.26,15.91V25c0,.47,0,.47-.45.47-1.16,0-2.32,0-3.48,0-.32,0-.44-.07-.44-.43q0-9.12,0-18.23c0-.32.08-.44.41-.43,1.19,0,2.38,0,3.58,0,.3,0,.38.11.38.41Z"/><path class="cls-1" d="M19.26,18.63v6.26c0,.56,0,.55-.52.55-1.45,0-2.89,0-4.34,0-.35,0-.43-.11-.43-.47,0-4.21,0-8.43,0-12.65,0-.5,0-.5.49-.5,1.47,0,2.93,0,4.4,0,.33,0,.4.12.4.43,0,2.13,0,4.26,0,6.39Z"/><path class="cls-1" d="M3.09,2.74c-.89,0-1.77,0-2.66,0-.31,0-.45-.1-.43-.45s0-.76,0-1.14A1,1,0,0,1,1.1,0h4a.93.93,0,0,1,1,1c0,.47,0,1,0,1.42,0,.24-.09.33-.33.33-.9,0-1.79,0-2.69,0Z"/><path class="cls-1" d="M3.07,27.32H5.79c.24,0,.34.07.33.35,0,.47,0,.95,0,1.42a.89.89,0,0,1-1,.92H1.15C.37,30,0,29.61,0,28.79c0-.37,0-.73,0-1.1s.08-.39.37-.39c.89,0,1.79,0,2.69,0Z"/><path class="cls-1" d="M16.62,10H14.34c-.27,0-.37-.09-.36-.37,0-.44,0-.88,0-1.31a1,1,0,0,1,1-1h3.31a1,1,0,0,1,1,1c0,.45,0,.9,0,1.35,0,.24-.09.33-.32.33Z"/><path class="cls-1" d="M16.64,27.31c.76,0,1.52,0,2.28,0,.24,0,.35.06.34.33,0,.45,0,.9,0,1.35a.87.87,0,0,1-.81,1c-1.23,0-2.45,0-3.68,0A.89.89,0,0,1,14,29c0-.48,0-1,0-1.45,0-.25.13-.27.3-.27Z"/><path class="cls-1" d="M10.05,4.54H8.18c-.18,0-.28,0-.28-.25,0-.5,0-1,0-1.49a1,1,0,0,1,1-1c.8,0,1.61,0,2.42,0a1,1,0,0,1,.93,1c0,.49,0,1,0,1.46,0,.25-.16.24-.32.24Z"/><path class="cls-1" d="M10.07,27.31c.61,0,1.22,0,1.84,0,.26,0,.37.08.35.37,0,.56,0,1.13-.12,1.68a.69.69,0,0,1-.71.6c-.92,0-1.84,0-2.75,0a.8.8,0,0,1-.75-.75c0-.56,0-1.13,0-1.7,0-.07.19-.18.29-.19Z"/><path class="cls-1" d="M25,29.81a1,1,0,0,1-1-.88c0-.22-.16-.5-.07-.63s.38-.14.58-.19l2.68-.62c.77-.17,1.54-.34,2.31-.54.23-.06.34,0,.37.21a3.57,3.57,0,0,1,.07.92c0,.47-.43.75-1,.88-1.14.24-2.28.51-3.41.77Z"/><path class="cls-1" d="M25.16,4.64l-3.56.85c-.71.17-1.43.32-2.15.47-.08,0-.26-.07-.26-.12a4.79,4.79,0,0,1,0-1.25.84.84,0,0,1,.55-.5c1.2-.32,2.42-.58,3.64-.85a3.69,3.69,0,0,1,.72-.15.93.93,0,0,1,1,.82C25.05,4.15,25.11,4.39,25.16,4.64Z"/></g></g></svg>