<svg xmlns="http://www.w3.org/2000/svg" viewBox="0 0 36.45 32.43"><defs><style>.cls-1{fill:#da0037;}</style></defs><g id="Camada_2" data-name="Camada 2"><g id="Camada_1-2" data-name="Camada 1"><path class="cls-1" d="M18.22,4.37A11.24,11.24,0,0,1,22,1.05a9.81,9.81,0,0,1,13.41,5c2,4.66,1.06,8.94-1.91,12.89A50.31,50.31,0,0,1,26,26.41c-2,1.75-4,3.47-6,5.2-1.26,1.08-2.22,1.1-3.45,0-3.6-3.16-7.22-6.29-10.76-9.51A19.74,19.74,0,0,1,1,15.77,11.83,11.83,0,0,1,2.92,3.15a9.69,9.69,0,0,1,14.8.61Zm0,25.89c.19-.15.35-.25.49-.37,2.09-1.79,4.19-3.57,6.26-5.38a47.86,47.86,0,0,0,6.84-6.81c2.51-3.3,3.35-6.88,1.66-10.8A7.56,7.56,0,0,0,21.17,4.28a16.71,16.71,0,0,0-1.78,2.21,1.35,1.35,0,0,1-2.35,0c-.31-.42-.58-.87-.91-1.28A7.52,7.52,0,0,0,4.51,4.59,9.17,9.17,0,0,0,2.36,13a12.88,12.88,0,0,0,4,6.63c2.45,2.39,5,4.66,7.6,7C15.31,27.84,16.75,29,18.18,30.26Z"/></g></g></svg>