<svg xmlns="http://www.w3.org/2000/svg" viewBox="0 0 611 105.91"><defs><style>.cls-1{fill:none;stroke:#da0037;stroke-miterlimit:10;}.cls-2,.cls-3{fill:#da0037;}.cls-3{font-size:15.11px;font-family:Montserrat-Medium, Montserrat;font-weight:500;}.cls-4{letter-spacing:0em;}.cls-5{letter-spacing:0em;}.cls-6{fill:#ededed;}</style></defs><g id="Camada_2" data-name="Camada 2"><g id="Camada_1-2" data-name="Camada 1"><rect class="cls-1" x="48.51" y="93.38" width="512.97" height="8.26" rx="4.13"/><path class="cls-2" d="M52.64,93.38H219.13a0,0,0,0,1,0,0v8.26a0,0,0,0,1,0,0H52.64a4.13,4.13,0,0,1-4.13-4.13v0A4.13,4.13,0,0,1,52.64,93.38Z"/><text class="cls-3" transform="translate(581.69 101.94)">3:<tspan class="cls-4" x="12.07" y="0">3</tspan><tspan class="cls-5" x="20.64" y="0">2</tspan></text><text class="cls-3" transform="translate(0 101.64)">1:22</text><path class="cls-2" d="M310.48,62.16a31.08,31.08,0,1,1,31.1-30.95A31.08,31.08,0,0,1,310.48,62.16Zm12.4-30.6L302.89,20V43.1Z"/><path class="cls-6" d="M375.84,34.41l-2,1.56-8.1,6.38a2,2,0,0,1-2.94-.18,3,3,0,0,1-.91-2.21q0-8.4,0-16.79a3,3,0,0,1,1.1-2.39,2,2,0,0,1,2.66-.07l5.26,4.14,4.62,3.64.27.2c0-.15,0-.27,0-.38V23.23A3.13,3.13,0,0,1,377,20.75a2,2,0,0,1,2.62-.06l8.15,6.42,2.11,1.67a3.49,3.49,0,0,1,0,5.56l-10.16,8a2,2,0,0,1-3-.19,3.12,3.12,0,0,1-.9-2.28V34.41Z"/><path class="cls-6" d="M245.14,33.93l2,1.56,8.1,6.38a2,2,0,0,0,2.94-.18,3.08,3.08,0,0,0,.91-2.21V22.69A3,3,0,0,0,258,20.3a2,2,0,0,0-2.67-.07l-5.26,4.14L245.44,28l-.28.21c0-.16,0-.27,0-.38,0-1.7,0-3.39,0-5.08A3.13,3.13,0,0,0,244,20.27a2,2,0,0,0-2.61-.06l-8.16,6.42-2.11,1.66a3.51,3.51,0,0,0,0,5.57l10.16,8a2,2,0,0,0,3-.19,3.12,3.12,0,0,0,.9-2.28V33.93Z"/><path class="cls-6" d="M418.65,39.4l-1.41,1.43a.52.52,0,0,1-1-.36c-.08-1.64-.16-3.28-.23-4.92,0-.58.25-.86.84-.83,1.66.08,3.31.15,5,.25a.8.8,0,0,1,.51.32c.14.19,0,.41-.15.57l-1.31,1.31-.23.25a7,7,0,0,0,3.91.92,7.28,7.28,0,0,0,6.92-7.25,1.37,1.37,0,1,1,2.73,0A9.6,9.6,0,0,1,432,37.31a9.77,9.77,0,0,1-8.56,3.74,9.56,9.56,0,0,1-4.57-1.49Z"/><path class="cls-6" d="M427.77,24.74a6.65,6.65,0,0,0-2.29-.83,7.27,7.27,0,0,0-8.31,5.42A8.79,8.79,0,0,0,417,31a1.39,1.39,0,0,1-1.38,1.42A1.36,1.36,0,0,1,414.23,31a10,10,0,0,1,15.3-8.41c.2.13.3.12.46-.05.4-.42.83-.83,1.23-1.24a.53.53,0,0,1,.61-.19c.26.09.33.3.34.57.07,1.61.15,3.23.24,4.85,0,.62-.23.93-.85.9-1.67-.07-3.33-.15-5-.25a.7.7,0,0,1-.47-.32c-.13-.19,0-.4.14-.57l1.42-1.43A.81.81,0,0,0,427.77,24.74Z"/><path class="cls-6" d="M192.16,26.05v-1.5a.3.3,0,0,1,.5-.22l3,2.55a.3.3,0,0,1,0,.46l-3,2.55a.3.3,0,0,1-.5-.22V28.2l-.25,0h-2.06a1.37,1.37,0,0,0-1,.44q-3.28,3.41-6.56,6.83a1.89,1.89,0,0,1-1.51.67c-1.29,0-2.59,0-3.88,0a1.06,1.06,0,1,1,0-2.12h3.23a1.47,1.47,0,0,0,1.1-.47c2.2-2.29,4.4-4.57,6.59-6.87a1.79,1.79,0,0,1,1.4-.61c.87,0,1.74,0,2.61,0Z"/><path class="cls-6" d="M192.18,34V32.51a.3.3,0,0,1,.49-.22l3,2.55a.3.3,0,0,1,0,.46l-3,2.53a.3.3,0,0,1-.5-.22V36.09h-1.25c-.64,0-1.27,0-1.91,0a1.48,1.48,0,0,1-1.05-.43c-.66-.69-1.33-1.36-2-2a1.06,1.06,0,0,1,0-1.54,1.07,1.07,0,0,1,1.55.07c.46.47.89,1,1.38,1.41a1.47,1.47,0,0,0,.78.4C190.48,34,191.32,34,192.18,34Z"/><path class="cls-6" d="M179,26h2.15a1.61,1.61,0,0,1,1.25.52c.59.64,1.21,1.26,1.81,1.89a1.1,1.1,0,0,1,.34,1.09,1,1,0,0,1-1.62.6,6.72,6.72,0,0,1-.89-.88c-1-1.15-.93-1.08-2.42-1.07h-2.52a2,2,0,0,1-.61-.09,1,1,0,0,1-.75-1.15,1,1,0,0,1,1-.9C177.54,26,178.28,26,179,26Z"/><rect class="cls-1" x="48.51" y="93.38" width="512.97" height="8.26" rx="4.13"/><path class="cls-2" d="M52.64,93.38H219.13a0,0,0,0,1,0,0v8.26a0,0,0,0,1,0,0H52.64a4.13,4.13,0,0,1-4.13-4.13v0A4.13,4.13,0,0,1,52.64,93.38Z"/><text class="cls-3" transform="translate(581.69 101.94)">3:<tspan class="cls-4" x="12.07" y="0">3</tspan><tspan class="cls-5" x="20.64" y="0">2</tspan></text><text class="cls-3" transform="translate(0 101.64)">1:22</text><path class="cls-2" d="M310.48,62.16a31.08,31.08,0,1,1,31.1-30.95A31.08,31.08,0,0,1,310.48,62.16Zm12.4-30.6L302.89,20V43.1Z"/><path class="cls-6" d="M375.84,34.41l-2,1.56-8.1,6.38a2,2,0,0,1-2.94-.18,3,3,0,0,1-.91-2.21q0-8.4,0-16.79a3,3,0,0,1,1.1-2.39,2,2,0,0,1,2.66-.07l5.26,4.14,4.62,3.64.27.2c0-.15,0-.27,0-.38V23.23A3.13,3.13,0,0,1,377,20.75a2,2,0,0,1,2.62-.06l8.15,6.42,2.11,1.67a3.49,3.49,0,0,1,0,5.56l-10.16,8a2,2,0,0,1-3-.19,3.12,3.12,0,0,1-.9-2.28V34.41Z"/><path class="cls-6" d="M245.14,33.93l2,1.56,8.1,6.38a2,2,0,0,0,2.94-.18,3.08,3.08,0,0,0,.91-2.21V22.69A3,3,0,0,0,258,20.3a2,2,0,0,0-2.67-.07l-5.26,4.14L245.44,28l-.28.21c0-.16,0-.27,0-.38,0-1.7,0-3.39,0-5.08A3.13,3.13,0,0,0,244,20.27a2,2,0,0,0-2.61-.06l-8.16,6.42-2.11,1.66a3.51,3.51,0,0,0,0,5.57l10.16,8a2,2,0,0,0,3-.19,3.12,3.12,0,0,0,.9-2.28V33.93Z"/><path class="cls-6" d="M418.65,39.4l-1.41,1.43a.52.52,0,0,1-1-.36c-.08-1.64-.16-3.28-.23-4.92,0-.58.25-.86.84-.83,1.66.08,3.31.15,5,.25a.8.8,0,0,1,.51.32c.14.19,0,.41-.15.57l-1.31,1.31-.23.25a7,7,0,0,0,3.91.92,7.28,7.28,0,0,0,6.92-7.25,1.37,1.37,0,1,1,2.73,0A9.6,9.6,0,0,1,432,37.31a9.77,9.77,0,0,1-8.56,3.74,9.56,9.56,0,0,1-4.57-1.49Z"/><path class="cls-6" d="M427.77,24.74a6.65,6.65,0,0,0-2.29-.83,7.27,7.27,0,0,0-8.31,5.42A8.79,8.79,0,0,0,417,31a1.39,1.39,0,0,1-1.38,1.42A1.36,1.36,0,0,1,414.23,31a10,10,0,0,1,15.3-8.41c.2.13.3.12.46-.05.4-.42.83-.83,1.23-1.24a.53.53,0,0,1,.61-.19c.26.09.33.3.34.57.07,1.61.15,3.23.24,4.85,0,.62-.23.93-.85.9-1.67-.07-3.33-.15-5-.25a.7.7,0,0,1-.47-.32c-.13-.19,0-.4.14-.57l1.42-1.43A.81.81,0,0,0,427.77,24.74Z"/><path class="cls-6" d="M192.16,26.05v-1.5a.3.3,0,0,1,.5-.22l3,2.55a.3.3,0,0,1,0,.46l-3,2.55a.3.3,0,0,1-.5-.22V28.2l-.25,0h-2.06a1.37,1.37,0,0,0-1,.44q-3.28,3.41-6.56,6.83a1.89,1.89,0,0,1-1.51.67c-1.29,0-2.59,0-3.88,0a1.06,1.06,0,1,1,0-2.12h3.23a1.47,1.47,0,0,0,1.1-.47c2.2-2.29,4.4-4.57,6.59-6.87a1.79,1.79,0,0,1,1.4-.61c.87,0,1.74,0,2.61,0Z"/><path class="cls-6" d="M192.18,34V32.51a.3.3,0,0,1,.49-.22l3,2.55a.3.3,0,0,1,0,.46l-3,2.53a.3.3,0,0,1-.5-.22V36.09h-1.25c-.64,0-1.27,0-1.91,0a1.48,1.48,0,0,1-1.05-.43c-.66-.69-1.33-1.36-2-2a1.06,1.06,0,0,1,0-1.54,1.07,1.07,0,0,1,1.55.07c.46.47.89,1,1.38,1.41a1.47,1.47,0,0,0,.78.4C190.48,34,191.32,34,192.18,34Z"/><path class="cls-6" d="M179,26h2.15a1.61,1.61,0,0,1,1.25.52c.59.64,1.21,1.26,1.81,1.89a1.1,1.1,0,0,1,.34,1.09,1,1,0,0,1-1.62.6,6.72,6.72,0,0,1-.89-.88c-1-1.15-.93-1.08-2.42-1.07h-2.52a2,2,0,0,1-.61-.09,1,1,0,0,1-.75-1.15,1,1,0,0,1,1-.9C177.54,26,178.28,26,179,26Z"/></g></g></svg>