<svg xmlns="http://www.w3.org/2000/svg" viewBox="0 0 258.48 62.16"><defs><style>.cls-1{fill:#da0037;}.cls-2{fill:#ededed;}</style></defs><g id="Camada_2" data-name="Camada 2"><g id="Camada_1-2" data-name="Camada 1"><path class="cls-1" d="M134.73,62.16a31.08,31.08,0,1,1,31.1-30.95A31.08,31.08,0,0,1,134.73,62.16Zm12.4-30.6L127.14,20V43.1Z"/><path class="cls-2" d="M200.09,34.41l-2,1.56L190,42.35a2,2,0,0,1-2.94-.18,3.07,3.07,0,0,1-.91-2.21V23.17a3.08,3.08,0,0,1,1.1-2.39,2,2,0,0,1,2.67-.07l5.26,4.14,4.61,3.64.28.2c0-.15,0-.27,0-.38V23.23a3.13,3.13,0,0,1,1.13-2.48,2,2,0,0,1,2.61-.06L212,27.11l2.11,1.67a3.5,3.5,0,0,1,0,5.56l-10.16,8a2,2,0,0,1-3-.19,3.12,3.12,0,0,1-.9-2.28V34.41Z"/><path class="cls-2" d="M69.39,33.93l2,1.56,8.1,6.38a2,2,0,0,0,3-.18,3.07,3.07,0,0,0,.9-2.21q0-8.4,0-16.79a3,3,0,0,0-1.1-2.39,2,2,0,0,0-2.66-.07L74.3,24.37,69.68,28l-.27.21c0-.16,0-.27,0-.38V22.75a3.13,3.13,0,0,0-1.13-2.48,2,2,0,0,0-2.62-.06l-8.15,6.42-2.11,1.66a3.51,3.51,0,0,0,0,5.57l10.16,8a2,2,0,0,0,3-.19,3.12,3.12,0,0,0,.9-2.28V33.93Z"/><path class="cls-2" d="M242.9,39.4l-1.41,1.43a.58.58,0,0,1-.63.22.59.59,0,0,1-.34-.58c-.07-1.64-.15-3.28-.23-4.92,0-.58.26-.86.85-.83,1.65.08,3.31.15,5,.25a.81.81,0,0,1,.5.32c.14.19,0,.41-.14.57l-1.31,1.31c-.07.08-.15.15-.23.25a7,7,0,0,0,3.91.92,7.16,7.16,0,0,0,5.74-3.3,7.26,7.26,0,0,0,1.18-3.95,1.37,1.37,0,1,1,2.73,0,9.65,9.65,0,0,1-2.19,6.23,9.78,9.78,0,0,1-8.56,3.74,9.56,9.56,0,0,1-4.57-1.49Z"/><path class="cls-2" d="M252,24.74a6.73,6.73,0,0,0-2.29-.83,7.27,7.27,0,0,0-8.31,5.42,8.79,8.79,0,0,0-.22,1.7,1.4,1.4,0,0,1-1.38,1.42A1.36,1.36,0,0,1,238.48,31a10,10,0,0,1,15.3-8.41.29.29,0,0,0,.46-.05c.4-.42.82-.83,1.23-1.24a.52.52,0,0,1,.61-.19.55.55,0,0,1,.34.57c.07,1.61.15,3.23.23,4.85,0,.62-.23.93-.84.9-1.67-.07-3.33-.15-5-.25a.74.74,0,0,1-.48-.32.45.45,0,0,1,.14-.57c.48-.47,1-.95,1.43-1.43Z"/><path class="cls-2" d="M16.41,26.05v-1.5a.3.3,0,0,1,.5-.22l3,2.55a.3.3,0,0,1,0,.46l-3,2.55a.3.3,0,0,1-.49-.22V28.2l-.26,0H14.12a1.37,1.37,0,0,0-1,.44Q9.82,32,6.54,35.44A1.9,1.9,0,0,1,5,36.11c-1.29,0-2.58,0-3.87,0a1.06,1.06,0,1,1,0-2.12H4.37a1.47,1.47,0,0,0,1.1-.47c2.2-2.29,4.4-4.57,6.59-6.87a1.77,1.77,0,0,1,1.4-.61c.87,0,1.74,0,2.61,0Z"/><path class="cls-2" d="M16.42,34V32.51a.3.3,0,0,1,.5-.22l3,2.55a.32.32,0,0,1,0,.46l-3,2.53a.3.3,0,0,1-.5-.22V36.09H15.19c-.64,0-1.28,0-1.91,0a1.45,1.45,0,0,1-1-.43c-.66-.69-1.33-1.36-2-2a1.05,1.05,0,1,1,1.5-1.47c.47.47.9,1,1.38,1.41a1.5,1.5,0,0,0,.79.4C14.73,34,15.56,34,16.42,34Z"/><path class="cls-2" d="M3.27,26H5.41a1.63,1.63,0,0,1,1.26.52c.59.64,1.21,1.26,1.81,1.89a1.1,1.1,0,0,1,.34,1.09,1,1,0,0,1-1.62.6,6.72,6.72,0,0,1-.89-.88c-1-1.15-.93-1.08-2.42-1.07H1.36a2,2,0,0,1-.6-.09A1,1,0,0,1,0,26.93,1,1,0,0,1,1,26C1.78,26,2.53,26,3.27,26Z"/></g></g></svg>