<svg xmlns="http://www.w3.org/2000/svg" viewBox="0 0 129.29 42.56"><defs><style>.cls-1{fill:#ededed;}</style></defs><g id="Camada_2" data-name="Camada 2"><g id="Camada_1-2" data-name="Camada 1"><path class="cls-1" d="M21.31,0A21.28,21.28,0,1,1,0,21.25,21.25,21.25,0,0,1,21.31,0ZM40.49,21.31A19.21,19.21,0,1,0,21.23,40.48,19.29,19.29,0,0,0,40.49,21.31Z"/><path class="cls-1" d="M15.46,21.29c.19-.2.33-.37.49-.52l8-8c.64-.64,1.31-.72,1.78-.22s.3,1.15-.29,1.74c-2.11,2.11-4.22,4.23-6.36,6.32-.48.48-.54.76,0,1.27,2.11,2,4.18,4.15,6.26,6.23a2.65,2.65,0,0,1,.48.53A1,1,0,0,1,25.63,30a1,1,0,0,1-1.34.1,2.21,2.21,0,0,1-.33-.29L15.8,21.67C15.7,21.57,15.61,21.46,15.46,21.29Z"/><path class="cls-1" d="M108,42.56a21.28,21.28,0,1,1,21.31-21.24A21.25,21.25,0,0,1,108,42.56ZM88.81,21.25A19.2,19.2,0,1,0,108.06,2.08,19.29,19.29,0,0,0,88.81,21.25Z"/><path class="cls-1" d="M113.83,21.27c-.19.21-.33.37-.49.53l-8,8c-.64.64-1.31.72-1.78.23s-.3-1.15.29-1.75c2.11-2.11,4.22-4.23,6.36-6.32.48-.47.54-.76,0-1.26-2.11-2.06-4.18-4.15-6.26-6.24a2.65,2.65,0,0,1-.48-.53,1,1,0,0,1,.12-1.34,1,1,0,0,1,1.34-.1,2.28,2.28,0,0,1,.33.29l8.16,8.16C113.59,21,113.68,21.1,113.83,21.27Z"/></g></g></svg>