<svg xmlns="http://www.w3.org/2000/svg" viewBox="0 0 30 30"><defs><style>.cls-1{fill:#ededed;}</style></defs><g id="Camada_2" data-name="Camada 2"><g id="Camada_1-2" data-name="Camada 1"><path class="cls-1" d="M22.23,25.14A13.9,13.9,0,0,1,10.8,27.49a13.65,13.65,0,0,1-8.14-5.38,13.94,13.94,0,1,1,22.54.06l2,2c.71.72,1.43,1.43,2.15,2.15a2.16,2.16,0,0,1,0,3.08,2.14,2.14,0,0,1-3,0q-1.92-1.91-3.82-3.83A2.55,2.55,0,0,1,22.23,25.14Zm-8.35-1.58a9.64,9.64,0,1,0-9.59-9.73A9.67,9.67,0,0,0,13.88,23.56Z"/></g></g></svg>