<svg xmlns="http://www.w3.org/2000/svg" viewBox="0 0 191.02 23.83"><defs><style>.cls-1{fill:none;stroke:#da0037;stroke-miterlimit:10;}.cls-2{fill:#da0037;}</style></defs><g id="Camada_2" data-name="Camada 2"><g id="Camada_1-2" data-name="Camada 1"><rect class="cls-1" x="45.64" y="7.78" width="144.87" height="8.26" rx="4.13"/><path class="cls-2" d="M49.77,7.78h83.74a0,0,0,0,1,0,0V16a0,0,0,0,1,0,0H49.77a4.13,4.13,0,0,1-4.13-4.13v0A4.13,4.13,0,0,1,49.77,7.78Z"/><path class="cls-2" d="M15.35,11.88v10.4a4.78,4.78,0,0,1,0,.66c-.13.74-.7,1.11-1.35.75a11.28,11.28,0,0,1-1.9-1.48c-1.54-1.38-3-2.8-4.57-4.18a1.56,1.56,0,0,0-.91-.33c-1.43,0-2.86,0-4.28,0A2.11,2.11,0,0,1,0,15.31v-7A2.07,2.07,0,0,1,2.18,6.05C3.6,6,5,6.06,6.46,6a2,2,0,0,0,1.15-.44C9.36,4,11.07,2.42,12.79.84c.18-.16.34-.4.55-.48.46-.17,1.05-.48,1.4-.31a1.65,1.65,0,0,1,.58,1.28C15.37,4.85,15.34,8.36,15.35,11.88Z"/><path class="cls-2" d="M24.34,12.18a8.37,8.37,0,0,1-2.72,5.9c-.42.39-.89.61-1.34.1s-.21-.88.19-1.28a6.77,6.77,0,0,0,0-10.07C20,6.4,19.88,6,20.33,5.49s.88-.22,1.28.13A8.69,8.69,0,0,1,24.34,12.18Z"/><path class="cls-2" d="M21,12.05a5,5,0,0,1-1.76,3.7c-.43.39-.9.58-1.34.08s-.2-.88.21-1.27a3.49,3.49,0,0,0,0-5.37c-.44-.42-.65-.84-.19-1.33s.87-.27,1.29.1A5.16,5.16,0,0,1,21,12.05Z"/></g></g></svg>