<svg xmlns="http://www.w3.org/2000/svg" viewBox="0 0 20.45 20.43"><defs><style>.cls-1{fill:#3897f0;}.cls-2{fill:#fdfefe;}</style></defs><g id="Camada_2" data-name="Camada 2"><g id="Camada_1-2" data-name="Camada 1"><path class="cls-1" d="M17.9,3.51c-.07.49-.16,1-.24,1.61-.12.79-.07.88.68,1.18.5.21,1,.41,1.51.63a.78.78,0,0,1,.36,1.32q-.55.75-1.14,1.47c-.35.44-.35.54,0,1s.74.95,1.1,1.43.33,1.07-.33,1.36-1.15.46-1.72.69-.57.34-.49.88.18,1.19.24,1.79-.3,1.1-1,1S15.61,17.7,15,17.6a.6.6,0,0,0-.74.4q-.36.91-.75,1.83a.77.77,0,0,1-1.3.37c-.51-.36-1-.75-1.49-1.13s-.54-.37-1,0-1,.77-1.48,1.14a.79.79,0,0,1-1.34-.39c-.23-.54-.44-1.08-.66-1.62s-.33-.64-.94-.55-1.16.17-1.74.24c-.74.09-1.11-.28-1-1,.08-.59.17-1.19.26-1.79s0-.66-.51-.86-1.09-.43-1.63-.66c-.74-.32-.86-.77-.39-1.4s.73-1,1.1-1.44.35-.53,0-1S.62,8.74.26,8.26A.78.78,0,0,1,.61,6.91c.55-.24,1.12-.45,1.67-.68s.61-.33.52-.91S2.64,4.2,2.57,3.64c-.1-.84.28-1.2,1.11-1.07.58.09,1.15.18,1.73.25s.61,0,.8-.47S6.67,1.24,6.9.68c.3-.74.77-.88,1.4-.41l1.44,1.1c.45.35.53.35,1,0S11.68.62,12.17.26A.78.78,0,0,1,13.52.6c.25.57.47,1.15.7,1.72s.33.56.88.48,1.23-.18,1.85-.25S17.92,2.81,17.9,3.51Zm-12.24,7c1,1,2.09,2.08,3.12,3.13.24.25.36.18.56,0,1.6-1.62,3.22-3.23,4.83-4.84.66-.66.66-.66,0-1.32-.36-.35-.36-.36-.71,0-1.34,1.33-2.66,2.66-4,4-.46.47-.34.49-.81,0-.66-.65-1.31-1.32-2-2Z"/><path class="cls-2" d="M5.66,10.49l1-1.06c.67.67,1.32,1.34,2,2,.47.48.35.46.81,0,1.34-1.32,2.66-2.65,4-4,.35-.36.35-.35.71,0,.67.66.67.66,0,1.32-1.61,1.61-3.23,3.22-4.83,4.84-.2.21-.32.28-.56,0C7.75,12.57,6.7,11.53,5.66,10.49Z"/></g></g></svg>